<?xml version="1.0" encoding="utf-8"?>
<!-- Generator: Adobe Illustrator 19.2.1, SVG Export Plug-In . SVG Version: 6.00 Build 0)  -->
<svg version="1.1" id="facebook-square" xmlns="http://www.w3.org/2000/svg" xmlns:xlink="http://www.w3.org/1999/xlink" x="0px"
	 y="0px" viewBox="0 0 332 97" style="enable-background:new 0 0 332 97;" xml:space="preserve">
<style type="text/css">
	.st0{fill:#A5ACBA;}
	.st1{fill:#F7F7F7;}
</style>
<circle class="st0" cx="166" cy="49" r="48"/>
<path class="st1" d="M182.3,24.5h-32.7c-4.5,0-8.2,3.7-8.2,8.2v32.7c0,4.5,3.7,8.2,8.2,8.2h32.7c4.5,0,8.2-3.7,8.2-8.2V32.7
	C190.5,28.2,186.8,24.5,182.3,24.5L182.3,24.5z M183.2,49h-8v21.4H166V49h-4.4v-7h4.4v-4.6c0-6.2,2.7-9.9,9.9-9.9h8.4v7.6h-6.8
	c-2,0-2.3,1.1-2.3,3l0,3.8h9.2L183.2,49L183.2,49L183.2,49z"/>
<circle class="st0" cx="274.1" cy="48" r="48"/>
<path class="st1" d="M298.6,32.7c-1.8,0.8-3.7,1.3-5.8,1.6c2.1-1.3,3.7-3.2,4.4-5.6c-1.9,1.2-4.1,2-6.4,2.5c-1.8-2-4.4-3.2-7.3-3.2
	c-5.6,0-10.1,4.5-10.1,10.1c0,0.8,0.1,1.6,0.3,2.3c-8.4-0.4-15.8-4.4-20.7-10.6c-0.9,1.5-1.4,3.2-1.4,5.1c0,3.5,1.8,6.6,4.5,8.4
	c-1.6-0.1-3.2-0.5-4.6-1.3c0,0,0,0.1,0,0.1c0,4.9,3.5,9,8.1,9.9c-0.8,0.2-1.7,0.4-2.6,0.4c-0.6,0-1.3-0.1-1.9-0.2c1.3,4,5,6.9,9.4,7
	c-3.4,2.7-7.8,4.3-12.5,4.3c-0.8,0-1.6,0-2.4-0.1c4.4,2.9,9.7,4.5,15.4,4.5c18.5,0,28.6-15.4,28.6-28.8c0-0.4,0-0.9,0-1.3
	C295.5,36.5,297.2,34.7,298.6,32.7z"/>
<circle class="st0" cx="57.9" cy="48" r="48"/>
<path class="st1" d="M77,23.5H38.8c-3,0-5.4,2.4-5.4,5.4v38.2c0,3,2.4,5.4,5.4,5.4H77c3,0,5.4-2.4,5.4-5.4V28.9
	C82.4,25.9,80,23.5,77,23.5z M57.9,38.6c5.2,0,9.4,4.2,9.4,9.4c0,5.2-4.2,9.4-9.4,9.4s-9.4-4.2-9.4-9.4S52.7,38.6,57.9,38.6z
	 M76.7,64.8c0,1.1-0.9,2-2,2H41.1c-1.1,0-2-0.9-2-2V44.3h4.3c-0.3,1.2-0.5,2.4-0.5,3.7c0,8.3,6.7,15,15,15s15-6.7,15-15
	c0-1.3-0.2-2.5-0.5-3.7h4.1V64.8L76.7,64.8z M76.8,36.6c0,1.1-0.9,2-2,2h-5.6c-1.1,0-2-0.9-2-2V31c0-1.1,0.9-2,2-2h5.6
	c1.1,0,2,0.9,2,2V36.6z"/>
</svg>
