<svg id="controls.fw-Page_201" data-name="controls.fw-Page%201" xmlns="http://www.w3.org/2000/svg" xmlns:xlink="http://www.w3.org/1999/xlink" viewBox="0 0 139.58 29.1"><defs><style>.cls-1,.cls-2{fill:none;}.cls-2,.cls-4{stroke:#fff;}.cls-10,.cls-3{fill:#fff;}.cls-4{fill:#333;}.cls-5{fill:url(#radial-gradient);}.cls-6{fill:url(#linear-gradient);}.cls-7{fill:url(#linear-gradient-2);}.cls-8{fill:#a8a8b7;}.cls-10,.cls-9{isolation:isolate;}.cls-10{font-size:10px;font-family:Arial;}.cls-11{fill:url(#linear-gradient-3);}.cls-12{fill:url(#linear-gradient-4);}.cls-13{fill:url(#linear-gradient-5);}.cls-14{fill:url(#linear-gradient-6);}.cls-15{fill:url(#linear-gradient-7);}.cls-16{fill:url(#linear-gradient-8);}.cls-17{fill:url(#linear-gradient-9);}.cls-18{fill:url(#linear-gradient-10);}.cls-19{fill:url(#linear-gradient-11);}.cls-20{fill:url(#linear-gradient-12);}.cls-21{fill:url(#linear-gradient-13);}.cls-22{fill:url(#linear-gradient-14);}.cls-23{fill:url(#linear-gradient-15);}.cls-24{fill:url(#linear-gradient-16);}.cls-25{fill:url(#linear-gradient-17);}.cls-26{fill:url(#linear-gradient-18);}.cls-27{fill:url(#linear-gradient-19);}.cls-28{fill:url(#linear-gradient-20);}</style><radialGradient id="radial-gradient" cx="-215.86" cy="374.6" r="0.5" gradientTransform="matrix(14, 0, 0, -10, 3110, 3754)" gradientUnits="userSpaceOnUse"><stop offset="0" stop-color="#fff"/><stop offset="1" stop-color="#f2f2f2" stop-opacity="0.2"/></radialGradient><linearGradient id="linear-gradient" x1="-213.08" y1="379.01" x2="-213.08" y2="376.44" gradientTransform="matrix(12, 0, 0, -11.13, 2629, 4218.5)" gradientUnits="userSpaceOnUse"><stop offset="0" stop-color="#fff"/><stop offset="1" stop-color="#c8c8c8"/></linearGradient><linearGradient id="linear-gradient-2" x1="-185.9" y1="337.2" x2="-185.9" y2="334.81" gradientTransform="matrix(5, 0, 0, -5, 998, 1688)" xlink:href="#linear-gradient"/><linearGradient id="linear-gradient-3" x1="-215.86" y1="381.42" x2="-215.86" y2="380.42" gradientTransform="matrix(14, 0, 0, -12, 3078, 4579)" xlink:href="#linear-gradient"/><linearGradient id="linear-gradient-4" x1="-185.9" y1="350.17" x2="-185.9" y2="348.31" gradientTransform="matrix(5, 0, 0, -6, 946, 2102.58)" xlink:href="#linear-gradient"/><linearGradient id="linear-gradient-5" x1="-174.25" y1="381.42" x2="-174.25" y2="380.42" gradientTransform="matrix(4, 0, 0, -12, 720, 4579)" xlink:href="#linear-gradient"/><linearGradient id="linear-gradient-6" x1="-185.9" y1="350.17" x2="-185.9" y2="348.31" gradientTransform="matrix(5, 0, 0, -6, 946, 2118.58)" xlink:href="#linear-gradient"/><linearGradient id="linear-gradient-7" x1="-174.25" y1="381.42" x2="-174.25" y2="380.42" gradientTransform="matrix(4, 0, 0, -12, 720, 4595)" xlink:href="#linear-gradient"/><linearGradient id="linear-gradient-8" x1="-211.32" y1="378.55" x2="-211.32" y2="377.55" gradientTransform="matrix(11, 0, 0, -11, 2333, 4167)" xlink:href="#linear-gradient"/><linearGradient id="linear-gradient-9" x1="-154.83" y1="381.42" x2="-154.83" y2="380.42" gradientTransform="matrix(3, 0, 0, -12, 466, 4593.58)" xlink:href="#linear-gradient"/><linearGradient id="linear-gradient-10" x1="-154.83" y1="381.42" x2="-154.83" y2="380.42" gradientTransform="matrix(3, 0, 0, -12, 473, 4593.58)" xlink:href="#linear-gradient"/><linearGradient id="linear-gradient-11" x1="-185.9" y1="337.2" x2="-185.9" y2="334.81" gradientTransform="matrix(5, 0, 0, -5, 966, 1688)" xlink:href="#linear-gradient"/><linearGradient id="linear-gradient-12" x1="-185.9" y1="338.6" x2="-185.9" y2="336.21" gradientTransform="matrix(5, 0, 0, -5, 966, 1695)" xlink:href="#linear-gradient"/><linearGradient id="linear-gradient-13" x1="-185.9" y1="337.2" x2="-185.9" y2="334.81" gradientTransform="matrix(5, 0, 0, -5, 973, 1688)" xlink:href="#linear-gradient"/><linearGradient id="linear-gradient-14" x1="-185.9" y1="338.6" x2="-185.9" y2="336.21" gradientTransform="matrix(5, 0, 0, -5, 973, 1695)" xlink:href="#linear-gradient"/><linearGradient id="linear-gradient-15" x1="-174.25" y1="318.25" x2="-174.25" y2="315.27" gradientTransform="matrix(4, 0, 0, -4, 741, 1291)" xlink:href="#linear-gradient"/><linearGradient id="linear-gradient-16" x1="-174.25" y1="318.25" x2="-174.25" y2="315.86" gradientTransform="matrix(4, 0, 0, -4, 733, 1291)" xlink:href="#linear-gradient"/><linearGradient id="linear-gradient-17" x1="-174.25" y1="320.25" x2="-174.25" y2="317.25" gradientTransform="matrix(4, 0, 0, -4, 733, 1299)" xlink:href="#linear-gradient"/><linearGradient id="linear-gradient-18" x1="-174.25" y1="320.25" x2="-174.25" y2="317.14" gradientTransform="matrix(4, 0, 0, -4, 741, 1299)" xlink:href="#linear-gradient"/><linearGradient id="linear-gradient-19" x1="-209.2" y1="375.1" x2="-209.2" y2="374.1" gradientTransform="matrix(10, 0, 0, -10, 2209, 3752.58)" xlink:href="#linear-gradient"/><linearGradient id="linear-gradient-20" x1="-214.8" y1="384.21" x2="-214.8" y2="383.21" gradientTransform="matrix(13.16, 0, 0, -13.16, 2963.81, 5059.48)" gradientUnits="userSpaceOnUse"><stop offset="0" stop-color="#fff"/><stop offset="0.99" stop-color="#c8c8c8"/></linearGradient></defs><title>play-icon</title><path class="cls-1" transform="translate(-3 -1.42)"/><g id="controls"><path id="Line" class="cls-2" d="M98.5,7.5h11" transform="translate(-3 -1.42)"/><path id="Line2" class="cls-2" d="M98.5,3.5h11" transform="translate(-3 -1.42)"/><path id="Line3" class="cls-2" d="M98.5,11.5h11" transform="translate(-3 -1.42)"/><path id="Ellipse" class="cls-3" d="M108,11.5a1.08,1.08,0,1,1,2,0A1.08,1.08,0,1,1,108,11.5Z" transform="translate(-3 -1.42)"/><path id="Ellipse2" class="cls-3" d="M104,7.5a1.08,1.08,0,1,1,2,0A1.08,1.08,0,1,1,104,7.5Z" transform="translate(-3 -1.42)"/><path id="Ellipse3" class="cls-3" d="M108,3.5a1.08,1.08,0,1,1,2,0A1.08,1.08,0,1,1,108,3.5Z" transform="translate(-3 -1.42)"/></g><g id="backlight"><g id="off"><rect class="cls-4" x="80" y="19.58" width="10" height="6"/></g><g id="on"><path id="Ellipse4" class="cls-5" d="M81,8c0-2.76,3.13-5,7-5s7,2.24,7,5-3.13,5-7,5S81,10.76,81,8Z" transform="translate(-3 -1.42)"/><rect class="cls-4" x="80" y="3.58" width="10" height="6"/></g></g><g id="loop"><g id="on2"><path class="cls-6" d="M73.79,4.2a4.2,4.2,0,1,1-3.59,0L68.88,2.88a6,6,0,1,0,6.25,0Z" transform="translate(-3 -1.42)"/><path class="cls-7" d="M71,2H66l5,5V2Z" transform="translate(-3 -1.42)"/></g><g id="off2"><path class="cls-8" d="M73.79,20.2a4.2,4.2,0,1,1-3.59,0l-1.33-1.33a6,6,0,1,0,6.25,0Z" transform="translate(-3 -1.42)"/><path class="cls-8" d="M71,18H66l5,5V18Z" transform="translate(-3 -1.42)"/></g></g><g id="cc"><g class="cls-9"><text class="cls-10" transform="translate(46 15.58)">cc</text></g><path class="cls-2" d="M55,7c-4.72-3.22-4.94,5.94,0,3" transform="translate(-3 -1.42)"/><path class="cls-2" d="M60,7c-4.72-3.22-4.94,5.94,0,3" transform="translate(-3 -1.42)"/><path class="cls-11" d="M50,3H62V13H50V3ZM49,2V14H63V2H49Z" transform="translate(-3 -1.42)"/><rect class="cls-1" x="46" y="0.58" width="14" height="12"/></g><g id="volume"><g id="no_20sound" data-name="no%20sound"><rect class="cls-12" x="14" y="3.58" width="5" height="6"/><path class="cls-13" d="M21,5l4-3V14l-4-2.94V5Z" transform="translate(-3 -1.42)"/></g><g id="sound_20bars" data-name="sound%20bars"><rect class="cls-14" x="14" y="19.58" width="5" height="6"/><path class="cls-15" d="M21,21l4-3V30l-4-2.94V21Z" transform="translate(-3 -1.42)"/><path class="cls-2" d="M27,18s3.06-.62,3,6-3,6-3,6" transform="translate(-3 -1.42)"/><path class="cls-2" d="M26,21s2-.31,2,3-2,3-2,3" transform="translate(-3 -1.42)"/></g></g><g id="play_pause" data-name="play/pause"><g id="play"><path id="Polygon" class="cls-16" d="M14,8.5L3,14V3Z" transform="translate(-3 -1.42)"/></g><g id="pause"><rect class="cls-17" y="16.58" width="3" height="12"/><rect class="cls-18" x="7" y="16.58" width="3" height="12"/></g></g><g id="fullscreen"><g id="enter_201" data-name="enter%201"><path class="cls-19" d="M34,2h5L34,7V2Z" transform="translate(-3 -1.42)"/><path class="cls-20" d="M34,14h5L34,9v5Z" transform="translate(-3 -1.42)"/><path class="cls-21" d="M46,2H41l5,5V2Z" transform="translate(-3 -1.42)"/><path class="cls-22" d="M46,14H41l5-5v5Z" transform="translate(-3 -1.42)"/></g><g id="exit"><path class="cls-23" d="M42,22h4l-4-4v4Z" transform="translate(-3 -1.42)"/><path class="cls-24" d="M38,22V18l-4,4h4Z" transform="translate(-3 -1.42)"/><path class="cls-25" d="M38,26H34l4,4V26Z" transform="translate(-3 -1.42)"/><path class="cls-26" d="M42,26v4l4-4H42Z" transform="translate(-3 -1.42)"/></g></g><g id="stop"><rect class="cls-27" x="112" y="1.58" width="10" height="10"/></g><g id="chooser"><path class="cls-28" d="M135.23,6.15a2,2,0,1,1-1.08,2.61A2,2,0,0,1,135.23,6.15Zm-2-4.73L136,4l2.73-2.59,0.1,3.76,3.76,0.1L140,8l2.59,2.73-3.76.1-0.1,3.76L136,12l-2.73,2.59-0.1-3.76-3.76-.1L132,8l-2.59-2.73,3.76-.1Z" transform="translate(-3 -1.42)"/></g><path class="cls-1" transform="translate(-3 -1.42)"/></svg>