<?xml version="1.0" encoding="utf-8"?>
<!-- Generator: Adobe Illustrator 19.2.1, SVG Export Plug-In . SVG Version: 6.00 Build 0)  -->
<svg version="1.1" id="Layer_1" xmlns="http://www.w3.org/2000/svg" xmlns:xlink="http://www.w3.org/1999/xlink" x="0px" y="0px"
	 viewBox="0 0 79.2 79.2" style="enable-background:new 0 0 79.2 79.2;" xml:space="preserve">
<style type="text/css">
	.st0{fill:#4057B7;}
	.st1{fill:#FFFFFF;}
	.st2{display:none;fill:#FFFFFF;}
</style>
<circle class="st0" cx="39.6" cy="39.6" r="39.6"/>
<path id="googleplus" class="st1" d="M40.9,51.2c0-0.4,0-0.6-0.1-1c-0.1-0.2-0.1-0.6-0.2-0.9s-0.2-0.5-0.4-0.9
	c-0.2-0.3-0.4-0.5-0.5-0.8c-0.1-0.3-0.4-0.4-0.6-0.8c-0.2-0.2-0.5-0.5-0.6-0.6c-0.1-0.1-0.4-0.4-0.8-0.6c-0.4-0.2-0.6-0.5-0.8-0.5
	s-0.4-0.3-0.8-0.5c-0.4-0.3-0.6-0.5-0.8-0.5c-0.2,0-0.6,0-1.2,0c-0.9,0-1.8,0-2.5,0.1c-0.9,0.1-1.8,0.2-2.6,0.6
	c-0.9,0.2-1.6,0.6-2.4,1.1c-0.7,0.5-1.2,1-1.6,1.8c-0.4,0.8-0.6,1.6-0.6,2.6c0,1.1,0.2,2.1,0.9,2.9c0.6,0.9,1.4,1.5,2.2,2
	c0.9,0.5,1.9,0.9,2.9,1.1c1,0.2,2,0.4,3,0.4s1.9-0.1,2.8-0.2c0.9-0.2,1.6-0.5,2.4-1c0.7-0.4,1.4-1,1.8-1.8
	C40.7,53,40.9,52.2,40.9,51.2z M38,30.4c0-1-0.1-2-0.4-3.1s-0.6-2.1-1.1-3.1s-1.1-1.9-2-2.5s-1.9-1-2.9-1c-1.5,0-2.6,0.5-3.5,1.6
	s-1.2,2.4-1.2,4c0,0.8,0.1,1.5,0.2,2.4c0.1,0.9,0.5,1.6,0.9,2.5c0.4,0.9,0.9,1.6,1.4,2.2c0.5,0.6,1.1,1.2,1.9,1.6
	c0.8,0.4,1.5,0.6,2.4,0.6c1.5,0,2.6-0.5,3.4-1.5C37.7,33.3,38,32,38,30.4z M34.9,19h10.5l-3.2,1.9h-3.2c1.1,0.8,2,1.8,2.6,3
	s1,2.6,1,4c0,1.1-0.1,2.3-0.5,3.1c-0.4,0.9-0.9,1.6-1.4,2.3c-0.5,0.5-1,1.1-1.6,1.5c-0.5,0.5-1,1-1.4,1.5s-0.5,1-0.5,1.6
	c0,0.4,0.1,0.9,0.4,1.2s0.6,0.8,1,1.1c0.4,0.4,0.9,0.8,1.4,1.1c0.5,0.4,1,0.9,1.5,1.4s1,1,1.4,1.6s0.8,1.2,1,2
	c0.3,0.8,0.4,1.6,0.4,2.5c0,2.6-1.1,4.9-3.4,6.7c-2.4,2.1-5.8,3.1-10.1,3.1c-1,0-1.9-0.1-2.9-0.3s-2-0.4-2.9-0.8
	c-1-0.4-1.9-0.9-2.6-1.4s-1.4-1.2-1.9-2.1c-0.4-0.7-0.6-1.6-0.6-2.7c0-1,0.2-2,0.9-3.2c0.5-1,1.2-1.9,2.2-2.6c1-0.8,2.2-1.4,3.5-1.7
	c1.2-0.4,2.5-0.6,3.8-0.9c1.1-0.1,2.4-0.2,3.6-0.4c-1-1.4-1.5-2.5-1.5-3.6c0-0.2,0-0.4,0-0.6c0-0.1,0.1-0.4,0.1-0.5s0.1-0.2,0.2-0.5
	s0.1-0.4,0.1-0.5C32.2,37,31.6,37,31.2,37c-2.4,0-4.4-0.8-6.1-2.4c-1.8-1.6-2.5-3.5-2.5-5.9c0-2.2,0.7-4.2,2.2-6
	c1.5-1.6,3.4-2.8,5.6-3.3C31.9,19.1,33.4,19,34.9,19z M59.8,25.1v3.1h-6.1v6.1h-3.1v-6.1h-6.1v-3.1h6.1V19h3.1v6.1H59.8z"/>
<path id="twitter" class="st2" d="M61.4,24.8c-1.8,0.7-3.5,1.3-5.6,1.5c2-1.2,3.5-3.1,4.2-5.3c-1.9,1.2-4,1.9-6.1,2.3
	c-1.6-1.9-4.2-3.1-6.9-3.1c-5.3,0-9.7,4.2-9.7,9.7c0,0.7,0.1,1.5,0.3,2.2c-8.1-0.4-15.1-4.2-19.9-10.1c-0.9,1.5-1.3,3.1-1.3,4.8
	c0,3.4,1.8,6.3,4.2,8.1c-1.6,0-3.1-0.4-4.4-1.2v0.1c0,4.7,3.4,8.5,7.8,9.4c-0.9,0.1-1.6,0.3-2.5,0.3c-0.6,0-1.2,0-1.8-0.1
	c1.2,3.8,4.8,6.6,8.9,6.7c-3.2,2.6-7.5,4.1-12,4.1c-0.7,0-1.6,0-2.3-0.1c4.2,2.8,9.4,4.4,14.8,4.4c17.7,0,27.4-14.6,27.4-27.4
	c0-0.4,0-0.9,0-1.2C58.4,28.4,60.1,26.7,61.4,24.8z"/>
<path id="facebook" class="st2" d="M50.4,29.7h-7.6v-5c0-1.9,1.2-2.3,2.1-2.3c0.9,0,5.4,0,5.4,0v-8.3l-7.4,0
	c-8.2,0-10.1,6.2-10.1,10.1v5.5H28v8.5h4.8c0,10.9,0,24.1,0,24.1h10c0,0,0-13.3,0-24.1h6.8L50.4,29.7z"/>
</svg>
