<svg xmlns="http://www.w3.org/2000/svg" xmlns:xlink="http://www.w3.org/1999/xlink" viewBox="0 0 312.2 96"><title>social-images</title><circle cx="156.1" cy="48" r="48" style="fill:#a5acba"/><path d="M172.4,24.5H139.7a8.24,8.24,0,0,0-8.2,8.2V65.4a8.24,8.24,0,0,0,8.2,8.2h32.7a8.24,8.24,0,0,0,8.2-8.2V32.7a8.24,8.24,0,0,0-8.2-8.2h0ZM173.3,49h-8V70.4h-9.2V49h-4.4V42h4.4V37.4c0-6.2,2.7-9.9,9.9-9.9h8.4v7.6h-6.8c-2,0-2.3,1.1-2.3,3v3.8h9.2L173.3,49h0Z" style="fill:#f7f7f7"/><circle cx="264.2" cy="48" r="48" style="fill:#a5acba"/><image width="512" height="512" transform="translate(238.2 21) scale(0.11)" xlink:href="../../../Project12-Resources/images/linkedin.png" style="isolation:isolate"/><circle cx="48" cy="48" r="48" style="fill:#a5acba"/><image width="260" height="228" transform="translate(14.63 19.59) scale(0.25 0.24)" xlink:href="EDBDF56467E600AF.png" style="isolation:isolate"/></svg>